{"glyphs":{":":{"x_min":0,"x_max":241,"ha":241,"o":"m 126 507 q 166 507 191 476 q 217 446 217 404 q 217 365 188 339 q 159 312 118 312 q 78 312 50 343 q 23 373 23 415 q 23 454 53 480 q 83 507 126 507 z m 122 196 q 162 196 188 166 q 213 135 213 93 q 213 54 184 28 q 155 2 114 2 q 74 2 47 32 q 19 63 19 105 q 19 144 49 170 q 79 196 122 196 z"},"$":{"x_min":0,"x_max":670,"ha":670,"o":"m 426 -8 l 426 -72 l 248 -72 l 248 -42 q 249 -29 249 -22 q 249 -3 236 -3 q 170 -3 122 20 q 89 44 56 69 l 56 272 l 283 272 l 283 180 q 283 163 299 152 q 314 141 331 141 q 360 141 371 156 q 383 171 383 207 q 383 275 294 304 q 130 356 128 358 q 38 410 38 533 q 38 630 91 688 q 127 726 190 749 q 244 768 244 769 l 244 815 l 425 815 l 425 799 q 425 767 429 765 q 437 764 444 763 q 498 753 545 729 q 579 705 613 681 l 613 509 l 380 509 l 380 566 q 380 585 369 599 q 357 613 334 613 q 282 613 282 554 q 282 503 372 477 q 509 438 541 417 q 632 358 632 230 q 632 121 579 62 q 543 22 480 6 q 452 -1 426 -8 z"},"?":{"x_min":0,"x_max":633,"ha":633,"o":"m 282 184 q 322 184 348 153 q 373 123 373 81 q 373 41 344 15 q 315 -10 274 -10 q 234 -10 207 20 q 179 50 179 92 q 179 131 209 158 q 239 184 282 184 z m 375 238 l 157 238 l 157 329 q 157 401 256 455 q 355 510 355 550 q 355 564 350 579 q 346 593 332 601 q 319 610 303 610 q 285 610 272 598 q 260 586 260 561 l 260 494 l 38 494 l 38 677 q 95 731 169 751 q 228 768 324 768 q 437 768 511 711 q 590 651 590 554 q 590 454 535 398 q 515 378 431 331 q 375 300 375 261 z"},"'":{"x_min":0,"x_max":247,"ha":247,"o":"m 200 566 l 110 456 l 70 490 l 115 562 q 122 572 122 579 q 122 585 76 609 q 30 632 30 689 q 30 692 30 694 q 30 732 60 758 q 90 783 130 783 q 185 783 212 750 q 236 721 236 673 q 236 610 200 566 z"},"a":{"x_min":0,"x_max":610,"ha":610,"o":"m 342 0 l 342 10 q 342 23 333 23 q 330 23 280 -1 q 253 -13 238 -13 q 216 -13 205 -13 q 131 -13 97 8 q 47 38 38 128 q 37 134 37 149 q 37 200 64 240 q 90 280 140 297 l 336 366 l 336 407 q 336 428 324 435 q 312 442 299 442 q 253 442 253 403 l 253 368 l 62 368 l 62 499 q 114 544 170 560 q 227 575 307 575 q 405 575 468 542 q 545 501 545 419 l 545 170 q 545 162 548 155 q 550 148 556 139 q 562 130 570 127 l 570 0 z m 283 210 q 269 202 260 190 q 252 177 254 163 q 259 130 292 130 q 311 130 326 142 q 340 154 340 173 l 340 207 q 340 220 322 220 q 311 220 303 218 q 295 215 283 210 z"},"L":{"x_min":0,"x_max":641,"ha":641,"o":"m 312 193 q 312 181 312 175 q 312 165 314 163 q 317 159 333 159 l 356 159 q 364 159 374 164 q 385 169 391 178 q 398 188 400 197 q 403 207 403 222 l 403 366 l 601 366 l 601 0 l 45 0 l 45 127 q 53 130 60 140 q 66 149 68 153 q 70 161 70 170 l 70 589 q 70 599 68 606 q 65 612 58 623 q 50 634 38 642 l 38 759 l 345 759 l 345 642 q 334 635 327 625 q 312 608 312 589 z"},"3":{"x_min":0,"x_max":652,"ha":652,"o":"m 241 300 l 200 300 l 200 442 l 246 442 q 306 442 329 456 q 366 479 366 550 q 366 580 351 593 q 336 606 310 606 q 286 606 273 589 q 260 572 260 547 l 260 494 l 38 494 l 38 678 q 90 723 178 746 q 251 765 330 765 q 437 765 510 723 q 602 670 602 570 q 602 502 592 470 q 576 419 528 396 q 521 393 521 384 q 521 375 527 372 q 587 340 603 290 q 612 261 612 170 q 612 70 529 14 q 450 -37 325 -37 q 244 -37 175 -19 q 91 3 38 49 l 38 252 l 266 252 l 266 186 q 266 166 278 147 q 290 129 313 129 q 338 129 350 137 q 368 149 371 173 q 374 198 374 213 q 374 273 334 290 q 312 300 241 300 z"},";":{"x_min":0,"x_max":242,"ha":242,"o":"m 128 503 q 168 503 193 472 q 219 442 219 400 q 219 361 190 335 q 161 309 120 309 q 80 309 52 339 q 25 370 25 411 q 25 450 55 477 q 85 503 128 503 z m 189 -38 l 98 -148 l 59 -113 l 104 -42 q 110 -31 110 -24 q 110 -18 65 5 q 19 28 19 85 q 18 89 18 90 q 18 129 48 154 q 78 179 119 179 q 173 179 201 146 q 225 117 225 70 q 225 6 189 -38 z"},"J":{"x_min":0,"x_max":405,"ha":405,"o":"m 375 759 l 375 642 q 363 634 357 625 q 350 615 347 607 q 343 598 343 589 l 343 236 q 343 106 305 49 q 271 -1 193 -10 q 173 -13 155 -15 q 137 -16 124 -16 q 98 -16 79 -13 q 60 -10 38 0 l 38 127 q 89 132 112 176 q 119 188 121 200 q 123 212 123 227 q 123 239 123 246 l 123 589 q 123 599 120 606 q 117 612 110 623 q 103 634 90 642 l 90 759 z"},"V":{"x_min":0,"x_max":695,"ha":695,"o":"m 426 595 q 427 608 414 616 q 410 619 407 621 q 399 625 395 625 l 395 758 l 667 758 l 667 626 q 655 621 649 614 q 643 608 639 603 q 635 597 634 590 l 519 0 l 191 0 l 68 583 q 67 590 64 595 q 63 597 55 609 q 48 621 38 628 l 38 758 l 338 758 l 338 626 q 331 625 323 617 q 315 609 317 595 l 368 292 l 374 288 q 378 288 379 293 z"},"7":{"x_min":0,"x_max":647,"ha":647,"o":"m 373 0 l 116 0 l 324 585 q 327 594 313 597 q 299 599 290 599 q 270 598 263 598 q 247 598 247 572 q 247 559 247 550 l 247 457 l 38 457 l 38 762 l 608 762 l 608 631 z"},"S":{"x_min":0,"x_max":653,"ha":653,"o":"m 328 -30 q 211 -30 143 -4 q 86 18 38 63 l 38 261 l 273 261 l 273 172 q 273 155 289 144 q 305 133 322 133 q 350 133 361 152 q 373 170 373 207 q 373 274 285 301 q 129 348 118 353 q 29 405 29 533 q 29 671 113 731 q 182 780 307 780 q 421 780 489 755 q 547 734 592 691 l 592 509 l 370 509 l 370 575 q 370 594 359 609 q 348 623 325 623 q 272 623 272 554 q 272 504 361 478 q 493 440 526 419 q 615 361 615 230 q 615 -30 328 -30 z"},"Z":{"x_min":0,"x_max":611,"ha":611,"o":"m 38 130 l 306 573 q 309 579 309 586 q 309 590 306 596 q 303 601 296 603 q 292 604 283 604 l 253 604 q 230 604 221 594 q 211 585 210 576 q 209 568 209 549 l 209 457 l 43 457 l 43 759 l 595 759 l 595 613 l 336 187 q 333 181 333 174 q 333 170 337 163 q 341 156 358 156 l 389 156 q 411 156 422 167 q 438 183 438 210 l 438 310 l 605 310 l 605 -1 l 38 -1 z"},"x":{"x_min":0,"x_max":585,"ha":585,"o":"m 298 430 q 302 427 305 427 q 307 427 309 429 q 310 430 310 430 l 341 471 l 341 553 l 547 553 l 547 429 q 538 429 530 423 q 527 420 521 413 q 516 406 513 402 l 434 300 q 431 296 431 289 q 431 282 431 278 q 431 267 434 262 l 525 135 q 531 125 542 118 l 554 112 l 554 -2 l 310 -2 l 310 82 l 280 134 q 277 140 274 140 q 271 140 267 133 l 231 85 l 231 -2 l 32 -2 l 32 110 q 37 110 39 111 q 44 115 46 116 q 51 120 54 125 q 58 130 62 136 l 161 262 q 163 265 163 275 q 163 287 161 290 l 70 409 q 64 416 62 420 q 57 426 51 430 l 38 435 l 38 553 l 270 553 l 270 482 z"},")":{"x_min":0,"x_max":407,"ha":407,"o":"m 137 888 q 267 773 318 659 q 366 553 366 400 q 366 229 315 107 q 265 -15 141 -126 l 23 -46 q 90 65 115 158 q 141 251 141 381 q 141 510 115 600 q 89 690 19 804 z"},"&":{"x_min":0,"x_max":667,"ha":667,"o":"m 604 0 l 225 0 q 137 0 88 47 q 38 93 38 169 q 38 261 50 300 q 70 361 131 394 q 136 395 136 406 q 136 414 130 416 q 85 432 64 470 q 43 507 43 556 q 43 567 44 577 q 44 579 47 599 q 64 699 147 748 q 216 789 323 789 q 420 789 507 757 q 594 725 603 690 l 603 565 l 376 565 q 376 588 365 603 q 353 618 331 618 q 325 618 314 616 q 304 614 294 600 q 284 586 284 550 q 284 543 283 536 q 283 529 283 521 q 283 496 288 484 q 292 471 310 471 l 355 471 q 363 471 372 478 q 382 484 382 501 q 382 507 381 510 l 600 510 q 600 495 611 482 q 622 470 636 469 l 636 333 q 627 332 615 323 q 604 313 604 300 z m 328 159 l 362 159 q 373 159 377 164 q 380 169 380 177 q 379 193 379 202 l 379 290 q 380 304 380 310 q 380 318 377 325 q 374 331 365 331 l 332 331 q 307 331 293 304 q 279 277 279 247 q 279 211 290 185 q 301 159 328 159 z"},"v":{"x_min":0,"x_max":617,"ha":617,"o":"m 374 404 q 378 417 371 424 q 364 431 354 431 l 354 558 l 580 558 l 580 430 q 573 428 566 419 q 559 410 558 404 l 440 -1 l 182 -1 l 60 399 q 57 405 56 408 q 53 412 50 418 l 38 432 l 38 558 l 297 558 l 297 432 q 293 432 290 430 q 288 428 287 427 q 280 420 282 410 l 325 239 l 330 236 q 331 236 332 240 z"},"O":{"x_min":0,"x_max":669,"ha":669,"o":"m 330 -26 q 189 -26 115 37 q 38 103 38 238 l 38 559 q 38 677 128 736 q 203 786 325 786 q 419 786 494 745 q 606 684 606 554 l 606 238 q 606 77 510 15 q 448 -26 330 -26 z m 367 573 q 367 593 353 607 q 340 620 319 620 q 299 620 287 606 q 275 592 275 572 l 275 185 q 275 166 289 153 q 303 140 323 140 q 340 140 353 153 q 367 167 367 186 z"},"(":{"x_min":0,"x_max":405,"ha":405,"o":"m 385 804 q 318 694 290 601 q 263 508 263 381 q 263 251 289 158 q 314 65 381 -46 l 263 -126 q 141 -16 90 107 q 38 230 38 400 q 38 553 86 659 q 137 773 267 888 z"},"C":{"x_min":0,"x_max":619,"ha":619,"o":"m 370 575 q 370 595 356 609 q 343 622 322 622 q 302 622 290 608 q 278 594 278 574 l 278 190 q 278 171 292 159 q 306 146 326 146 q 343 146 356 159 q 370 172 370 191 l 370 311 l 590 311 l 590 67 q 535 15 477 -3 q 418 -21 330 -21 q 191 -21 115 46 q 38 113 38 238 l 38 559 q 38 677 125 733 q 196 780 315 780 q 402 780 459 764 q 532 743 590 689 l 590 491 l 370 491 z"},"W":{"x_min":0,"x_max":969,"ha":969,"o":"m 795 0 l 550 0 l 494 291 l 490 293 l 486 291 l 424 4 l 183 4 l 71 587 q 70 597 67 604 q 65 610 58 616 q 47 626 38 627 l 38 756 l 337 756 l 337 625 l 326 618 q 322 614 320 609 q 318 602 318 587 l 342 413 l 348 407 l 355 413 l 421 756 l 591 756 l 663 416 l 669 410 l 674 415 l 697 587 q 698 596 697 603 q 696 610 690 617 q 684 623 675 624 l 675 756 l 930 756 l 930 619 q 919 616 910 605 q 901 593 899 577 z"},"A":{"x_min":0,"x_max":733,"ha":733,"o":"m 393 173 q 393 184 386 193 q 382 196 380 197 q 372 202 369 202 l 290 202 q 286 202 280 198 q 278 197 275 193 q 268 184 268 173 l 268 163 q 268 150 279 142 q 283 139 287 137 q 294 133 298 133 l 298 0 l 38 0 l 38 132 q 47 137 51 146 l 57 164 l 169 762 l 515 762 l 639 175 q 640 169 643 163 q 644 161 651 149 q 659 137 669 130 l 669 0 l 369 0 l 369 132 q 375 133 384 142 q 393 151 393 163 z m 323 522 l 293 370 q 291 351 300 342 q 309 332 327 335 q 333 334 343 336 q 352 338 354 342 q 364 354 361 370 z"},"f":{"x_min":0,"x_max":356,"ha":356,"o":"m 329 428 l 297 428 q 281 428 275 420 q 269 413 268 405 q 268 396 268 390 l 269 170 q 269 150 277 139 q 285 127 298 123 l 298 0 l 39 0 l 39 124 q 50 128 56 135 q 62 142 62 160 q 62 166 62 170 l 62 378 q 62 389 62 393 q 62 408 58 418 q 53 429 38 437 l 38 548 q 48 548 52 553 q 57 558 60 565 q 62 571 62 583 l 62 609 q 62 679 95 718 q 134 764 217 764 q 230 764 244 764 q 257 764 270 765 q 294 765 310 762 q 327 760 345 752 l 345 640 q 336 643 328 643 q 315 643 306 639 q 296 635 286 628 q 268 613 268 585 l 268 570 q 268 567 273 558 q 279 550 297 550 l 329 550 z"},"Q":{"x_min":0,"x_max":659,"ha":659,"o":"m 597 109 q 596 106 587 89 q 578 71 578 59 l 578 51 l 622 9 l 539 -123 l 367 -21 q 355 -14 343 -14 q 326 -16 310 -16 q 296 -16 273 -13 q 148 3 104 47 q 38 112 38 243 l 38 564 q 38 681 132 738 q 210 786 334 786 q 429 786 504 745 q 615 684 615 554 l 615 284 l 615 223 q 615 189 612 166 q 609 143 597 109 z m 376 573 q 376 593 363 607 q 350 620 329 620 q 309 620 297 606 q 285 592 285 572 l 285 185 q 285 166 299 153 q 312 140 332 140 q 350 140 363 153 q 376 167 376 186 z"},"w":{"x_min":0,"x_max":888,"ha":888,"o":"m 718 0 l 509 0 l 450 185 l 447 187 l 444 185 l 388 0 l 177 0 l 63 405 q 59 420 51 426 q 44 432 38 433 l 38 557 l 300 557 l 300 439 q 296 437 295 436 q 290 431 288 429 q 280 417 283 405 l 308 297 l 314 291 l 320 297 l 394 557 l 536 557 l 610 304 l 614 299 l 621 303 l 649 405 q 650 410 648 416 q 646 421 641 426 l 632 435 l 632 557 l 850 557 l 850 432 q 843 430 836 422 q 834 419 831 411 q 829 404 828 401 z"},"-":{"x_min":0,"x_max":353,"ha":353,"o":"m 22 478 l 332 478 l 332 341 l 22 341 z"},"E":{"x_min":0,"x_max":665,"ha":665,"o":"m 327 319 q 318 319 315 310 q 313 307 312 300 q 310 292 310 283 l 310 193 q 310 181 310 175 q 310 165 312 163 q 315 159 331 159 l 354 159 q 362 159 372 164 q 383 169 390 180 q 398 190 401 199 q 405 207 405 220 l 405 273 l 628 273 l 628 0 l 45 0 l 45 127 q 53 130 60 140 q 66 149 68 153 q 70 161 70 170 l 70 589 q 70 599 68 606 q 65 612 58 623 q 50 634 38 642 l 38 761 l 628 762 l 628 513 l 399 513 l 399 551 q 399 562 395 570 q 393 573 384 587 q 378 594 368 598 q 358 602 349 602 l 330 602 q 312 602 310 599 q 309 593 309 589 q 310 577 310 571 l 310 499 q 310 490 310 486 q 310 472 312 470 q 316 466 327 466 l 470 466 l 470 319 z"},"s":{"x_min":0,"x_max":564,"ha":564,"o":"m 284 -12 q 217 -12 163 1 q 90 19 44 58 l 44 204 l 241 204 l 241 147 q 241 133 254 124 q 268 114 280 114 q 296 114 308 124 q 323 136 323 159 q 323 206 248 225 q 119 257 106 264 q 30 302 30 395 q 30 493 110 539 q 171 574 269 574 q 340 574 388 564 q 462 548 514 504 l 514 377 l 315 377 l 315 415 q 315 428 302 440 q 290 451 272 451 q 255 451 244 440 q 233 430 233 411 q 233 404 234 400 q 243 363 320 347 q 426 325 455 309 q 527 270 527 175 q 527 84 458 34 q 393 -12 284 -12 z"},"l":{"x_min":0,"x_max":326,"ha":326,"o":"m 261 171 q 261 152 271 139 q 277 130 287 127 l 287 0 l 39 0 l 39 126 q 50 129 56 138 q 60 144 60 153 q 61 163 61 169 l 61 589 q 61 605 60 609 q 58 617 50 625 l 38 633 l 38 762 l 261 762 z"},"8":{"x_min":0,"x_max":692,"ha":692,"o":"m 350 -19 q 200 -19 113 52 q 35 117 35 211 q 35 262 60 308 q 85 354 133 388 q 136 390 136 394 q 136 403 131 407 q 90 442 70 483 q 49 525 49 566 q 49 654 128 718 q 208 781 331 781 q 479 781 563 709 q 635 646 635 556 q 635 511 616 473 q 596 435 559 412 q 557 410 557 402 q 557 392 559 390 q 605 350 628 301 q 650 253 650 204 q 650 110 575 49 q 492 -19 350 -19 z m 398 562 q 398 584 383 599 q 369 613 345 613 q 323 613 310 598 q 297 582 297 560 l 297 505 q 297 485 313 470 q 330 456 350 456 q 370 456 384 471 q 398 487 398 507 z m 398 265 q 398 287 383 301 q 369 316 345 316 q 323 316 310 300 q 297 285 297 263 l 297 183 q 297 163 313 149 q 330 134 350 134 q 370 134 384 150 q 398 165 398 185 z"},"e":{"x_min":0,"x_max":594,"ha":594,"o":"m 553 194 l 553 62 q 500 14 422 -5 q 367 -18 286 -18 q 172 -18 111 22 q 38 70 38 174 l 38 399 q 38 496 115 541 q 178 577 285 577 q 291 578 294 578 q 376 578 456 540 q 558 491 558 413 l 558 234 l 250 234 l 250 154 q 250 136 263 123 q 276 110 294 110 q 311 110 325 121 q 339 132 339 149 l 339 194 z m 339 351 l 339 406 q 339 445 295 445 q 276 445 264 434 q 251 424 251 407 l 251 351 z"},"b":{"x_min":0,"x_max":610,"ha":610,"o":"m 273 556 q 273 548 279 548 q 290 551 293 552 q 342 569 394 569 q 470 569 516 536 q 572 496 572 412 l 572 167 q 572 74 516 31 q 459 -11 324 -11 q 228 -11 182 -1 q 121 13 64 58 l 64 589 q 65 602 65 608 q 65 616 59 627 q 53 637 38 642 l 38 762 l 273 762 z m 350 139 q 359 146 361 157 q 364 169 364 185 l 364 326 q 364 334 364 343 q 364 351 365 360 q 365 375 361 387 q 358 398 350 406 q 334 420 317 420 l 287 420 q 275 420 273 413 q 271 410 271 397 q 271 383 271 375 l 271 172 q 270 154 270 146 q 270 137 273 132 q 275 130 280 130 q 284 130 289 130 l 321 130 q 338 130 350 139 z"},"%":{"x_min":0,"x_max":814,"ha":814,"o":"m 626 -8 q 563 -8 526 17 q 484 45 484 99 l 484 235 q 484 283 530 308 q 569 328 624 328 q 703 328 741 300 q 773 276 773 233 l 773 99 q 773 32 718 8 q 685 -8 626 -8 z m 180 434 q 117 434 80 459 q 38 487 38 541 l 38 677 q 38 725 85 750 q 123 770 178 770 q 257 770 295 742 q 328 718 328 675 l 328 541 q 328 474 272 450 q 239 434 180 434 z m 534 762 l 721 762 l 275 0 l 85 0 z m 209 683 q 209 691 201 697 q 193 703 184 703 q 159 703 159 682 l 159 519 q 159 511 167 506 q 175 500 184 500 q 193 500 201 505 q 209 510 209 519 z m 654 241 q 654 250 647 255 q 639 261 630 261 q 605 261 605 240 l 605 77 q 605 70 613 64 q 621 58 630 58 q 639 58 647 63 q 654 69 654 77 z"},"m":{"x_min":0,"x_max":897,"ha":897,"o":"m 514 523 q 523 523 525 524 q 597 564 675 564 q 741 564 779 530 q 824 491 824 412 l 824 170 q 824 153 833 141 q 843 130 856 127 l 856 0 l 633 0 l 633 314 q 633 350 630 369 q 627 387 616 400 q 605 412 592 412 l 562 412 q 550 412 549 406 q 545 399 545 376 l 545 169 q 545 158 546 153 q 547 147 554 137 q 561 128 574 127 l 574 0 l 351 0 l 351 314 q 351 326 351 336 q 351 347 352 356 q 352 368 351 379 q 350 390 341 399 q 330 412 317 412 l 287 412 q 275 412 273 406 q 270 399 270 376 l 270 169 q 270 147 275 138 q 281 130 292 127 l 292 0 l 50 0 l 50 127 q 58 130 64 140 q 70 150 70 170 l 70 384 q 70 394 68 401 q 65 408 58 419 q 50 430 38 437 l 38 554 l 257 554 l 257 535 q 257 529 264 529 q 270 529 276 532 q 283 535 290 539 q 315 552 343 559 q 371 565 395 565 q 442 565 483 544 q 496 537 514 523 z"},",":{"x_min":0,"x_max":241,"ha":241,"o":"m 189 -38 l 98 -148 l 59 -113 l 104 -42 q 110 -31 110 -25 q 110 -19 65 5 q 19 29 19 85 q 18 89 18 90 q 18 129 48 154 q 78 179 119 179 q 173 179 201 146 q 225 117 225 70 q 225 6 189 -38 z"},"n":{"x_min":0,"x_max":610,"ha":610,"o":"m 267 172 q 267 165 270 158 q 272 150 277 143 q 286 130 300 127 l 300 0 l 50 0 l 50 130 q 58 133 64 143 q 70 152 70 172 l 70 387 q 70 397 68 404 q 65 410 58 421 q 50 432 38 440 l 38 557 l 263 557 l 263 535 q 263 529 270 529 q 280 529 288 533 q 341 563 401 563 q 466 563 505 528 q 550 487 550 407 l 550 164 q 550 146 556 137 q 562 128 571 127 l 571 0 l 349 0 l 349 314 q 349 326 349 336 q 349 347 350 356 q 350 368 348 379 q 347 390 338 399 q 327 412 314 412 l 284 412 q 272 412 270 406 q 267 399 267 376 z"},"h":{"x_min":0,"x_max":629,"ha":629,"o":"m 352 0 l 352 314 q 352 324 352 334 q 352 345 353 355 q 353 370 351 380 q 349 390 342 397 q 329 410 314 410 l 284 410 q 272 410 270 404 q 270 402 269 390 q 268 379 268 377 q 268 370 268 366 l 268 171 q 268 150 277 140 q 287 130 299 127 l 299 0 l 38 0 l 38 126 q 49 129 55 138 q 59 144 60 153 q 60 163 60 169 l 60 589 q 60 605 59 609 q 57 617 50 625 l 37 633 l 37 762 l 267 762 l 267 541 q 267 532 272 532 q 277 532 287 537 q 338 563 399 563 q 467 563 508 530 q 556 490 556 412 l 556 170 q 556 153 566 141 q 575 130 589 127 l 589 0 z"},"z":{"x_min":0,"x_max":570,"ha":570,"o":"m 40 133 l 261 420 q 265 427 261 433 q 258 439 244 439 l 213 439 q 196 439 190 432 q 183 426 181 418 q 180 414 180 402 l 180 358 l 38 358 l 38 556 l 526 556 l 526 437 l 305 151 q 302 147 302 143 q 302 139 305 134 q 308 129 321 129 l 350 129 q 368 129 375 136 q 387 148 387 168 l 387 212 l 532 212 l 532 0 l 40 0 z"},"B":{"x_min":0,"x_max":690,"ha":690,"o":"m 45 0 l 45 127 q 53 130 60 140 q 66 149 68 153 q 70 161 70 170 l 70 589 q 70 599 68 606 q 65 612 58 623 q 50 634 38 642 l 38 761 l 472 761 q 544 761 594 715 q 645 670 645 599 q 645 523 633 490 q 615 436 561 416 q 555 414 555 405 q 555 396 560 394 q 622 360 644 309 q 661 268 661 184 q 661 106 619 56 q 571 0 486 0 z m 406 544 q 406 571 394 593 q 383 614 360 614 l 320 614 q 311 614 308 607 q 306 603 306 598 q 306 591 306 588 l 306 499 q 306 491 306 488 q 306 475 309 471 q 313 466 323 466 l 365 466 q 388 466 398 491 q 406 510 406 544 z m 414 239 q 414 271 403 294 q 389 324 361 324 l 321 324 q 311 324 309 316 q 307 312 307 302 q 307 290 307 283 l 307 194 q 306 176 306 170 q 306 161 309 156 q 312 151 324 151 l 366 151 q 392 151 405 180 q 414 202 414 239 z"},"K":{"x_min":0,"x_max":698,"ha":698,"o":"m 534 395 l 645 170 q 649 162 653 153 q 657 144 666 138 q 675 132 679 131 l 679 0 l 396 0 l 396 138 l 320 287 q 319 290 315 293 q 311 298 308 297 q 302 295 302 284 l 302 170 q 302 159 307 152 q 310 149 320 140 l 335 127 l 335 0 l 39 0 l 39 127 l 54 140 q 67 155 68 157 q 70 162 70 170 l 70 589 q 70 599 68 606 q 65 612 58 623 q 50 634 38 642 l 38 759 l 335 759 l 335 642 q 325 636 317 625 q 313 618 311 608 q 310 597 310 588 l 310 506 q 310 494 318 491 q 322 490 326 494 q 328 496 330 502 l 396 622 l 396 760 l 671 760 l 671 629 l 656 621 q 648 615 642 607 q 636 598 633 592 l 534 433 q 531 428 531 414 q 531 402 534 395 z"},"R":{"x_min":0,"x_max":681,"ha":681,"o":"m 618 255 l 618 169 q 618 152 625 141 q 632 130 641 127 l 641 0 l 381 0 l 381 219 q 381 234 377 247 q 372 260 361 271 q 355 277 351 280 q 344 286 332 286 l 319 286 q 300 286 299 284 q 297 278 297 270 q 298 254 298 246 l 298 169 q 298 152 305 141 q 312 130 321 127 l 321 0 l 39 0 l 39 127 q 48 130 53 139 q 59 147 62 154 q 66 162 66 170 l 66 569 q 66 585 64 592 q 63 599 56 610 q 49 621 38 627 l 38 761 l 440 761 q 516 761 571 703 q 627 645 627 570 q 627 502 612 463 q 593 411 546 387 q 540 384 540 375 q 540 368 545 365 q 586 340 598 325 q 618 300 618 255 z m 392 516 q 392 551 387 570 q 377 602 352 602 l 312 602 q 304 602 300 594 q 298 590 298 586 q 298 579 298 575 l 298 471 q 298 464 299 456 q 299 448 302 444 q 307 438 315 438 l 357 438 q 379 438 386 461 q 392 484 392 516 z"},"T":{"x_min":0,"x_max":723,"ha":723,"o":"m 470 170 q 470 153 480 140 q 491 128 506 127 l 506 0 l 216 0 l 216 127 q 230 128 241 140 q 246 146 248 150 q 253 159 253 170 l 253 572 q 253 584 253 590 q 253 599 251 603 q 250 605 243 606 q 241 606 234 606 q 227 607 217 602 q 208 597 205 592 q 198 580 198 567 q 198 558 198 552 l 198 420 l 38 420 l 38 759 l 684 759 l 684 420 l 524 420 l 524 550 q 524 560 524 564 q 524 577 517 590 q 514 594 505 599 q 495 604 488 603 q 483 603 481 603 q 472 603 471 600 q 470 596 470 583 q 470 574 470 570 z"},"P":{"x_min":0,"x_max":673,"ha":673,"o":"m 43 0 l 43 134 q 54 137 60 148 q 67 158 67 171 l 67 589 q 67 610 56 625 q 50 633 38 639 l 38 761 l 379 761 q 560 761 616 661 q 645 610 645 489 q 645 371 607 306 q 557 221 445 221 l 329 221 q 315 221 312 218 q 307 212 307 201 l 307 165 q 307 157 311 151 q 316 146 324 139 q 335 129 346 127 l 346 -1 z m 402 483 q 402 490 402 498 q 402 507 403 516 q 403 569 392 588 q 381 607 360 607 l 320 607 q 311 607 308 599 q 306 595 306 590 q 306 584 306 580 l 306 408 q 306 396 306 390 q 306 381 308 378 q 310 375 314 374 q 318 374 323 374 l 365 374 q 388 374 395 394 q 403 413 403 447 q 403 458 402 467 q 402 476 402 483 z"},"t":{"x_min":0,"x_max":373,"ha":373,"o":"m 59 383 q 59 406 52 420 q 46 434 30 442 l 30 552 q 42 552 48 559 q 50 562 55 570 q 60 578 60 588 l 60 687 l 264 745 l 264 575 q 264 570 269 562 q 273 554 291 554 l 346 554 l 346 434 l 295 434 q 279 434 272 425 q 266 416 266 395 l 266 206 q 266 188 272 170 q 279 152 290 144 q 300 136 309 130 q 323 121 334 119 l 334 7 q 316 -2 293 -5 q 270 -9 243 -9 q 220 -9 207 -9 q 125 -9 89 36 q 59 72 59 143 z"},"M":{"x_min":0,"x_max":839,"ha":839,"o":"m 448 0 l 356 0 l 264 320 l 258 326 l 252 321 l 252 170 q 252 162 255 155 q 258 148 264 139 q 270 130 278 127 l 278 0 l 38 0 l 38 127 q 49 130 59 142 q 69 154 69 169 l 69 589 q 69 598 66 607 q 63 616 58 626 q 52 635 40 642 l 40 759 l 358 759 l 420 495 l 425 493 l 429 495 l 494 759 l 802 759 l 802 642 q 790 634 783 625 q 777 615 773 607 q 770 598 770 589 l 770 170 q 770 151 783 140 q 788 136 790 134 q 796 130 801 130 l 801 0 l 517 0 l 517 131 q 522 132 525 133 q 532 136 537 140 q 547 149 547 170 l 547 310 q 547 313 544 316 q 542 316 541 317 l 533 310 z"},"g":{"x_min":0,"x_max":605,"ha":605,"o":"m 543 -47 q 543 -123 500 -162 q 448 -210 313 -210 q 222 -210 182 -202 q 118 -190 63 -148 l 63 -31 l 260 -31 l 260 -63 q 260 -82 273 -90 q 282 -94 298 -94 q 318 -94 326 -83 q 334 -72 334 -50 l 334 21 q 334 30 326 30 q 320 30 317 30 q 311 27 310 26 q 265 5 209 5 q 137 5 91 39 q 38 79 38 154 l 38 390 q 38 558 211 558 q 248 558 291 544 q 327 532 328 533 l 350 557 l 565 557 l 565 430 q 556 426 551 417 q 543 404 543 388 z m 262 402 q 252 394 250 384 q 248 373 248 356 l 248 236 q 248 222 248 215 q 248 197 250 185 q 252 172 259 165 q 266 157 274 155 q 283 153 295 153 l 318 153 q 326 153 330 160 q 331 162 332 173 q 333 185 333 187 q 333 194 333 198 l 333 369 q 333 385 333 392 q 333 406 331 409 q 330 411 316 411 l 291 411 q 274 411 262 402 z"},"j":{"x_min":0,"x_max":337,"ha":337,"o":"m 299 -32 q 299 -112 286 -143 q 259 -204 171 -215 q 167 -216 150 -218 q 134 -219 125 -219 q 98 -219 79 -216 q 60 -212 38 -201 l 38 -90 q 65 -90 81 -70 q 93 -58 97 -45 q 100 -32 100 -11 q 100 3 100 11 l 100 395 q 100 406 97 412 q 95 417 88 428 q 80 438 71 443 l 71 556 l 299 556 z m 189 762 q 231 762 265 741 q 298 721 298 684 q 298 646 266 623 q 234 600 191 600 q 146 600 112 622 q 75 647 75 687 q 75 723 110 742 q 145 762 189 762 z"},"i":{"x_min":0,"x_max":329,"ha":329,"o":"m 272 170 q 272 162 275 155 q 278 148 284 139 q 290 130 298 127 l 298 0 l 50 0 l 50 127 q 58 130 64 140 q 70 150 70 170 l 70 384 q 70 394 68 401 q 65 408 58 419 q 50 430 38 437 l 38 554 l 272 554 z m 163 762 q 206 762 239 741 q 272 721 272 684 q 272 646 240 623 q 209 600 166 600 q 120 600 87 622 q 50 647 50 687 q 50 723 84 742 q 119 762 163 762 z"},"y":{"x_min":0,"x_max":610,"ha":610,"o":"m 213 -1 l 64 399 l 54 418 q 50 426 38 432 l 38 555 l 301 555 l 301 432 q 297 432 294 430 q 291 428 290 427 q 284 420 286 410 l 331 260 l 336 257 q 338 257 339 261 l 378 404 q 382 417 375 424 q 368 431 358 431 l 358 556 l 584 556 l 584 430 q 577 428 571 420 l 563 402 l 410 -87 q 394 -141 357 -171 q 311 -209 235 -209 q 223 -209 218 -209 q 190 -209 179 -207 q 168 -205 140 -193 l 140 -85 q 152 -85 167 -79 q 182 -73 194 -64 q 206 -55 211 -45 q 217 -34 217 -22 q 217 -11 213 -1 z"},".":{"x_min":0,"x_max":236,"ha":236,"o":"m 122 198 q 162 198 188 168 q 213 137 213 95 q 213 56 184 30 q 155 4 114 4 q 74 4 47 34 q 19 65 19 107 q 19 146 49 172 q 79 198 122 198 z"},"p":{"x_min":0,"x_max":590,"ha":590,"o":"m 55 388 q 55 395 52 402 q 50 410 44 418 q 38 427 30 430 l 30 557 l 246 557 l 258 532 q 283 541 319 552 q 354 564 385 564 q 470 564 514 523 q 558 482 558 392 l 558 154 q 558 75 509 35 q 466 1 398 1 q 338 1 287 26 q 277 30 271 30 q 265 30 265 22 l 265 -34 q 265 -50 270 -60 q 275 -70 289 -74 l 289 -205 l 32 -205 l 32 -74 q 44 -70 45 -69 q 50 -65 52 -54 q 54 -43 55 -20 q 55 4 55 18 z m 307 420 l 282 420 q 271 420 269 416 q 265 411 265 389 q 265 381 265 377 l 265 195 q 265 184 265 173 q 265 162 268 157 q 270 150 280 150 l 303 150 q 323 150 335 162 q 344 170 347 183 q 350 196 350 213 q 350 227 350 233 l 350 365 q 350 387 349 394 q 347 402 335 411 q 324 420 307 420 z"},"X":{"x_min":0,"x_max":687,"ha":687,"o":"m 349 591 q 353 583 358 583 q 364 583 366 591 l 394 661 l 394 760 l 638 760 l 638 624 l 623 616 q 615 610 611 605 q 607 600 600 588 l 495 408 q 492 402 492 389 q 492 375 495 370 l 610 170 q 616 158 620 151 q 623 144 632 138 q 641 132 645 131 l 645 0 l 354 0 l 354 104 l 320 188 q 317 199 310 198 q 303 197 299 185 l 266 107 l 266 0 l 38 0 l 38 136 l 53 144 q 61 150 65 155 q 70 160 76 172 l 188 368 q 190 373 190 387 q 190 400 188 406 l 77 590 q 71 602 70 607 q 65 616 56 622 q 47 628 43 629 l 43 760 l 312 760 l 312 663 z"},"*":{"x_min":0,"x_max":252,"ha":252,"o":"m 43 758 l 85 737 l 97 743 l 97 792 l 146 792 l 146 739 l 153 733 l 205 760 l 230 725 l 185 693 l 185 682 l 230 648 l 208 619 l 175 636 l 157 636 l 138 582 l 109 583 l 93 636 l 81 636 l 41 613 l 20 650 l 64 681 l 64 694 l 19 728 z"},"Y":{"x_min":0,"x_max":643,"ha":643,"o":"m 440 280 l 440 170 q 440 161 443 155 q 445 152 459 136 l 472 123 l 472 0 l 181 0 l 181 127 l 196 140 q 209 155 210 157 q 212 162 212 170 l 212 278 l 72 590 q 69 598 65 606 q 62 614 54 621 q 46 628 38 629 l 38 760 l 294 760 l 294 646 l 334 540 q 336 531 344 531 q 350 531 351 540 l 390 644 l 390 760 l 615 760 l 615 624 l 604 616 q 598 611 593 605 q 590 601 581 580 z"},"c":{"x_min":0,"x_max":566,"ha":566,"o":"m 332 395 q 332 415 324 428 q 312 443 291 443 q 270 443 259 432 q 248 422 248 394 l 248 145 q 248 130 260 120 q 273 111 291 111 q 307 111 320 121 q 332 130 332 145 l 332 229 l 529 229 l 529 62 q 476 13 410 -5 q 362 -18 286 -18 q 172 -18 111 22 q 38 70 38 174 l 38 399 q 38 496 113 541 q 174 577 275 577 q 345 577 400 563 q 478 543 529 494 l 529 349 l 332 349 z"},"!":{"x_min":0,"x_max":324,"ha":324,"o":"m 165 184 q 205 184 230 153 q 256 123 256 81 q 256 41 227 15 q 198 -10 157 -10 q 117 -10 90 20 q 62 50 62 92 q 62 131 92 158 q 122 184 165 184 z m 161 768 q 219 768 251 743 q 284 719 284 662 q 284 647 281 628 l 214 237 l 109 238 l 38 626 q 34 644 34 662 q 34 717 73 745 q 106 768 161 768 z"},"/":{"x_min":0,"x_max":674,"ha":674,"o":"m 469 762 l 655 762 l 210 0 l 19 0 z"},"6":{"x_min":0,"x_max":638,"ha":638,"o":"m 38 559 q 38 668 127 720 q 198 762 315 762 q 396 762 469 742 q 542 723 593 679 l 593 515 l 367 515 l 367 560 q 367 588 356 599 q 345 610 322 610 q 295 610 285 596 q 275 583 275 559 l 275 526 q 274 515 274 510 q 274 495 281 487 q 289 479 312 479 q 330 480 347 481 q 363 483 385 483 q 488 483 541 448 q 606 405 606 308 l 606 158 q 606 70 526 24 q 453 -18 340 -18 q 219 -18 137 25 q 38 77 38 173 z m 271 176 q 271 158 289 148 q 307 137 328 137 q 347 137 361 148 q 375 159 375 177 l 375 285 q 375 312 363 323 q 350 333 329 333 q 303 333 287 324 q 271 314 271 295 z"},"r":{"x_min":0,"x_max":415,"ha":415,"o":"m 383 387 q 378 388 370 388 q 351 388 336 381 q 321 375 306 364 q 273 340 273 300 l 273 168 q 273 150 280 140 q 287 130 295 127 l 295 0 l 41 0 l 41 127 q 50 130 56 140 q 62 150 62 170 l 62 384 q 62 394 59 401 q 56 408 49 419 q 42 430 30 437 l 30 556 l 268 556 l 268 538 q 273 539 280 541 q 297 558 303 560 q 321 567 336 570 q 351 574 368 574 q 377 574 383 573 z"},"2":{"x_min":0,"x_max":650,"ha":650,"o":"m 277 150 q 279 145 299 145 l 330 145 q 352 145 363 155 q 379 171 379 198 l 379 222 l 604 222 l 604 -1 l 38 -1 l 38 202 q 38 296 128 360 q 141 370 293 448 q 384 494 384 544 q 384 614 330 614 q 302 614 290 595 q 279 576 279 547 l 279 480 l 57 480 l 57 684 q 107 730 194 754 q 268 774 349 774 q 469 774 540 722 q 623 661 623 539 q 623 427 533 352 q 498 323 366 256 q 275 210 275 169 q 275 157 277 150 z"},"9":{"x_min":0,"x_max":642,"ha":642,"o":"m 602 194 q 602 86 513 33 q 442 -9 325 -9 q 244 -9 176 10 q 98 30 47 74 l 47 238 l 273 238 l 273 193 q 273 166 284 155 q 295 144 318 144 q 345 144 356 159 q 365 170 365 194 l 365 228 q 366 238 366 244 q 366 258 360 265 q 351 274 328 274 q 310 272 293 271 q 277 270 255 270 q 152 270 99 306 q 34 349 34 446 l 34 595 q 34 687 114 738 q 188 786 300 786 q 420 786 505 736 q 602 679 602 580 z m 369 577 q 369 595 351 606 q 333 616 312 616 q 293 616 279 605 q 265 594 265 576 l 265 469 q 265 441 277 430 q 290 420 311 420 q 337 420 353 430 q 369 439 369 458 z"}," ":{"x_min":0,"x_max":271,"ha":271,"o":""},"I":{"x_min":0,"x_max":388,"ha":388,"o":"m 45 0 l 45 127 q 53 130 60 140 q 66 149 68 153 q 70 161 70 170 l 70 589 q 70 599 68 606 q 65 612 58 623 q 50 634 38 642 l 38 759 l 348 759 l 348 642 q 335 634 329 625 q 323 615 319 607 q 315 598 315 589 l 315 170 q 315 162 318 155 q 321 148 327 139 q 332 130 341 127 l 341 0 z"},"H":{"x_min":0,"x_max":690,"ha":690,"o":"m 655 0 l 655 127 q 647 130 640 140 q 634 149 632 153 q 630 161 630 170 l 630 589 q 630 599 632 606 q 635 612 642 623 q 650 634 662 642 l 662 759 l 375 759 l 375 642 q 386 636 395 622 q 404 609 404 590 l 404 512 q 404 502 404 496 q 404 478 402 471 q 401 465 392 464 l 371 464 l 337 464 l 312 464 q 307 468 305 475 q 304 482 304 511 l 304 589 q 304 609 316 625 q 325 637 338 642 l 338 759 l 38 759 l 38 642 q 50 634 57 625 q 63 615 67 607 q 70 598 70 589 l 70 170 q 70 162 68 155 q 65 148 59 139 q 53 130 45 127 l 45 0 l 331 0 l 331 127 q 322 131 316 139 q 310 147 307 154 q 304 161 304 170 l 304 283 q 304 295 304 310 q 305 324 311 323 l 335 323 l 375 323 l 396 323 q 403 323 405 315 q 408 308 408 294 q 408 286 408 283 l 408 170 q 408 161 405 155 q 402 149 396 140 q 390 131 380 127 l 380 0 z"},"4":{"x_min":0,"x_max":655,"ha":655,"o":"m 38 181 l 38 360 l 305 761 l 582 761 l 582 365 q 582 352 590 344 q 599 335 607 331 q 614 327 625 327 l 625 182 q 617 182 602 181 q 588 181 588 157 q 588 133 610 130 l 610 0 l 310 0 l 310 122 q 330 125 338 141 q 346 157 346 170 q 346 181 336 181 z m 330 471 l 250 354 q 246 350 246 345 q 246 334 332 334 q 345 334 347 345 q 349 355 349 370 l 349 405 q 349 415 349 424 q 349 433 349 439 q 349 461 347 472 q 346 483 341 483 q 337 483 330 471 z"},"D":{"x_min":0,"x_max":688,"ha":688,"o":"m 45 0 l 45 127 q 53 130 60 140 q 66 149 68 153 q 70 161 70 170 l 70 589 q 70 599 68 606 q 65 612 58 623 q 50 634 38 642 l 38 761 l 427 761 q 486 761 524 752 q 563 744 589 716 q 621 682 633 656 q 650 624 650 583 l 650 217 q 650 165 637 122 q 624 80 596 57 q 556 24 514 12 q 471 0 413 0 z m 398 170 q 407 176 409 188 q 411 199 411 215 l 411 514 q 411 523 411 531 q 411 539 412 548 q 412 561 410 572 q 407 583 398 590 q 382 605 365 605 l 325 605 q 313 605 311 598 q 310 594 310 582 q 310 568 310 560 l 310 203 q 309 185 309 176 q 309 168 311 163 q 313 160 318 160 q 322 160 327 160 l 369 160 q 386 160 398 170 z"},"0":{"x_min":0,"x_max":647,"ha":647,"o":"m 330 -11 q 187 -11 115 45 q 38 106 38 238 l 38 559 q 38 677 128 736 q 203 786 325 786 q 419 786 494 745 q 606 684 606 554 l 606 238 q 606 79 510 23 q 452 -11 330 -11 z m 367 573 q 367 593 353 607 q 340 620 319 620 q 299 620 287 606 q 275 592 275 572 l 275 185 q 275 166 289 153 q 303 140 323 140 q 340 140 353 153 q 367 167 367 186 z"},"F":{"x_min":0,"x_max":617,"ha":617,"o":"m 581 496 l 387 496 l 387 534 q 387 552 385 560 q 384 567 375 579 q 371 584 361 589 q 351 594 342 594 l 324 594 q 307 594 305 591 q 303 588 303 575 q 303 568 303 564 l 303 491 q 303 480 303 468 q 304 455 307 452 q 310 449 321 449 l 455 449 l 455 311 l 320 311 q 310 311 307 305 q 304 299 304 275 l 304 170 q 304 154 315 141 q 326 128 340 127 l 340 0 l 45 0 l 45 127 q 53 130 60 140 q 66 149 68 153 q 70 161 70 170 l 70 589 q 70 599 68 606 q 65 612 58 623 q 50 634 38 642 l 38 759 l 581 759 z"},"k":{"x_min":0,"x_max":613,"ha":613,"o":"m 271 410 q 271 403 283 401 q 286 400 289 403 q 290 404 292 407 l 336 478 l 336 557 l 568 557 l 568 435 l 556 430 q 543 423 537 415 l 470 329 q 469 326 469 314 q 469 305 470 301 l 551 143 q 558 130 568 124 q 577 118 582 116 l 582 0 l 392 0 l 286 203 q 284 206 283 207 q 279 211 276 210 q 270 210 270 201 l 270 170 q 270 160 270 155 q 270 143 275 134 q 280 125 291 120 l 291 0 l 38 0 l 38 119 q 49 122 55 130 q 61 138 61 150 q 60 162 60 169 l 61 592 q 62 604 62 610 q 62 617 58 625 q 51 637 38 641 l 38 761 l 271 762 z"},"u":{"x_min":0,"x_max":636,"ha":636,"o":"m 563 166 q 563 154 566 145 q 570 136 573 127 q 576 118 595 112 l 595 -1 l 369 -1 l 369 17 q 369 24 361 24 q 351 24 344 19 q 290 -10 226 -10 q 156 -10 113 25 q 63 67 63 146 l 63 398 q 63 415 49 427 q 40 434 30 435 l 30 552 l 268 552 l 268 238 q 268 227 267 216 q 267 206 267 196 q 267 185 268 174 q 270 163 277 154 q 284 146 294 143 q 304 140 315 140 l 346 140 q 357 140 359 147 q 363 153 363 176 l 363 390 q 363 408 355 420 q 347 432 330 435 l 330 552 l 563 552 z"},"U":{"x_min":0,"x_max":665,"ha":665,"o":"m 332 -21 q 224 -21 150 26 q 67 78 67 170 l 67 577 q 67 596 56 613 q 52 619 47 624 q 41 629 38 630 l 38 759 l 314 759 l 314 630 q 301 626 295 613 q 294 610 292 603 q 290 595 290 588 q 290 581 290 577 l 290 189 q 290 167 306 152 q 321 138 344 138 q 363 138 377 152 q 391 167 391 186 l 390 578 q 390 597 380 611 q 371 625 361 630 l 361 759 l 629 759 l 629 630 q 624 628 620 626 q 613 621 610 615 q 606 610 601 600 q 596 590 596 577 l 596 173 q 596 82 516 29 q 443 -21 332 -21 z"},"o":{"x_min":0,"x_max":570,"ha":570,"o":"m 279 -8 q 173 -8 110 34 q 38 82 38 174 l 38 405 q 38 488 118 530 q 182 563 276 563 q 411 563 476 515 q 530 475 530 402 l 530 174 q 530 61 436 18 q 379 -8 279 -8 z m 319 415 q 319 430 306 440 q 293 449 277 449 q 261 449 249 439 q 236 430 236 414 l 236 137 q 236 122 248 113 q 260 104 278 104 q 292 104 306 113 q 319 122 319 136 z"},"N":{"x_min":0,"x_max":718,"ha":718,"o":"m 435 450 q 436 448 445 448 l 450 452 l 450 589 q 450 596 450 600 q 449 605 440 618 l 429 631 l 429 758 l 680 758 l 680 631 q 670 629 661 618 q 650 604 650 590 l 649 0 l 403 0 l 273 295 l 268 301 l 261 296 l 261 168 q 261 149 267 140 q 272 130 284 126 l 284 -1 l 42 0 l 42 127 q 52 130 62 142 q 72 154 72 169 l 71 566 q 71 574 71 582 q 70 590 68 602 q 60 627 38 642 l 38 759 l 312 759 z"},"G":{"x_min":0,"x_max":622,"ha":622,"o":"m 361 575 q 361 595 348 609 q 334 622 313 622 q 293 622 281 608 q 270 594 270 574 l 270 182 q 270 163 283 150 q 297 137 318 137 q 338 137 351 150 q 365 164 365 184 l 365 256 q 365 271 364 273 q 360 279 345 279 l 326 279 l 326 426 l 582 426 l 582 67 q 527 14 462 -5 q 408 -21 315 -21 q 179 -21 109 46 q 38 112 38 238 l 38 559 q 38 677 125 733 q 196 780 315 780 q 398 780 456 763 q 530 741 584 689 l 584 500 l 361 500 z"},"q":{"x_min":0,"x_max":594,"ha":594,"o":"m 523 23 q 523 13 522 5 q 522 -4 522 -12 q 522 -28 524 -37 q 527 -47 535 -57 q 543 -68 555 -74 l 555 -205 l 299 -205 l 299 -74 q 312 -70 319 -57 q 322 -51 322 -34 l 323 22 q 323 30 316 30 q 310 30 301 26 q 250 1 189 1 q 121 1 79 34 q 30 74 30 154 l 30 392 q 30 480 73 522 q 117 564 203 564 q 248 564 298 541 q 317 532 318 534 l 329 557 l 522 557 z m 251 410 q 242 403 240 392 q 237 382 237 365 l 237 233 q 236 212 236 203 q 236 188 239 178 q 241 169 249 161 q 256 154 264 152 q 271 150 285 150 l 308 150 q 319 150 321 157 q 324 162 324 173 q 323 188 323 195 l 323 377 q 324 395 324 404 q 324 412 321 417 q 319 420 314 420 q 309 420 306 420 l 281 420 q 264 420 251 410 z"},"d":{"x_min":0,"x_max":604,"ha":604,"o":"m 211 -7 q 123 -7 80 34 q 38 74 38 165 l 38 403 q 38 482 88 522 q 130 556 198 556 q 258 556 310 531 q 313 530 317 529 q 322 527 325 527 q 331 527 331 535 l 330 591 q 330 609 328 614 q 321 628 308 631 l 308 762 l 541 762 l 541 170 q 541 162 544 155 q 547 148 552 139 q 558 130 567 127 l 567 0 l 350 0 l 327 23 q 305 13 274 3 q 244 -7 211 -7 z m 290 137 l 314 137 q 328 137 330 140 q 332 145 332 154 q 331 171 331 180 l 331 362 q 332 377 332 384 q 332 394 330 400 q 328 407 316 407 l 293 407 q 282 407 273 405 q 265 403 258 396 q 250 390 248 379 q 245 368 245 354 q 245 347 245 339 q 245 331 246 324 l 246 192 q 246 170 248 163 q 250 155 261 146 q 272 137 290 137 z"},"1":{"x_min":0,"x_max":382,"ha":382,"o":"m 313 170 q 313 162 316 155 q 319 148 325 139 q 331 130 344 127 l 344 0 l 47 0 l 47 127 q 59 130 65 140 q 70 150 70 170 l 70 589 q 70 599 68 606 q 65 612 58 623 q 50 634 38 642 l 38 759 l 312 759 z"},"5":{"x_min":0,"x_max":616,"ha":616,"o":"m 254 587 l 254 518 q 254 493 270 493 q 302 501 333 507 q 365 512 393 512 q 472 512 527 457 q 576 407 576 348 l 576 152 q 576 63 484 18 q 409 -18 290 -18 q 219 -18 162 0 q 94 22 38 71 l 38 271 l 252 271 l 252 176 q 252 158 269 148 q 286 137 306 137 q 324 137 338 148 q 351 159 351 177 l 351 313 q 351 341 339 351 q 327 362 305 362 q 283 362 274 356 q 265 350 257 334 l 38 334 l 38 762 l 567 762 l 567 551 l 344 551 q 341 570 330 583 q 319 596 304 596 q 290 598 280 598 q 272 598 263 597 q 254 595 254 587 z"}}}
